<svg viewBox="0 0 12 12" fill="none" xmlns="http://www.w3.org/2000/svg"><path d="M6.93194 1C6.60896 0.999891 6.34454 1.25923 6.33935 1.58356L6.24899 7.23544C5.77769 7.02843 5.2053 6.95485 4.61335 7.0593C3.27025 7.29627 2.33505 8.35998 2.52451 9.43516C2.71396 10.5103 3.95635 11.1898 5.29944 10.9528C6.38795 10.7608 7.20854 10.0257 7.37967 9.18162C7.39592 9.12906 7.40507 9.07334 7.40599 9.01556L7.40625 8.99936C7.41322 8.92128 7.41457 8.84255 7.41002 8.76351L7.49132 3.67845C7.89622 3.96941 8.38763 4.1629 8.90746 4.1629C9.23478 4.1629 9.50012 3.89738 9.50012 3.56985C9.50012 3.24232 9.23478 2.97681 8.90746 2.97681C8.60633 2.97681 8.2556 2.82018 7.96836 2.53276C7.68113 2.24534 7.5246 1.89437 7.5246 1.59304C7.5246 1.26552 7.25926 1 6.93194 1Z"></path></svg>